# xmcd
#
# Track frame offsets:
#	150
#	15878
#	28928
#	43953
#	65048
#
# Disc length: 1046 seconds
#
# Revision: 0
# Processed by: cddbd v1.4PL0 Copyright (c) Steve Scherf et al.
# Submitted via: dBpowerAMP V4.0
#
DISCID=3e041405
DTITLE=Jørn Hoel - Jørn Hoels Beste bonus CD
DYEAR=1900
DGENRE=
TTITLE0=Æ så mæ tilbake
TTITLE1=Like strangers
TTITLE2=My babe
TTITLE3=Lean on me
TTITLE4=Songs for you lovers
EXTD=Jørn Hoels Beste bonus CD
EXTT0=
EXTT1=
EXTT2=
EXTT3=
EXTT4=
PLAYORDER=
